<svg width="389" height="92" viewBox="0 0 389 92" fill="none" xmlns="http://www.w3.org/2000/svg">
<foreignObject x="-40" y="-14" width="438" height="177"><div xmlns="http://www.w3.org/1999/xhtml" style="backdrop-filter:blur(10px);clip-path:url(#bgblur_0_442_287_clip_path);height:100%;width:100%"></div></foreignObject><g filter="url(#filter0_ddddii_442_287)" data-figma-bg-blur-radius="20">
<mask id="path-1-inside-1_442_287" fill="white">
<path d="M16 37C16 26.7412 16 21.6119 17.8371 17.6268C19.8308 13.3022 23.3022 9.83082 27.6268 7.83714C31.6119 6 36.7412 6 47 6H347C357.259 6 362.388 6 366.373 7.83714C370.698 9.83082 374.169 13.3022 376.163 17.6268C378 21.6119 378 26.7412 378 37V37C378 47.2588 378 52.3881 376.163 56.3732C374.169 60.6978 370.698 64.1692 366.373 66.1629C362.388 68 357.259 68 347 68H47C36.7412 68 31.6119 68 27.6268 66.1629C23.3022 64.1692 19.8308 60.6978 17.8371 56.3732C16 52.3881 16 47.2588 16 37V37Z"/>
</mask>
<path d="M16 37C16 26.7412 16 21.6119 17.8371 17.6268C19.8308 13.3022 23.3022 9.83082 27.6268 7.83714C31.6119 6 36.7412 6 47 6H347C357.259 6 362.388 6 366.373 7.83714C370.698 9.83082 374.169 13.3022 376.163 17.6268C378 21.6119 378 26.7412 378 37V37C378 47.2588 378 52.3881 376.163 56.3732C374.169 60.6978 370.698 64.1692 366.373 66.1629C362.388 68 357.259 68 347 68H47C36.7412 68 31.6119 68 27.6268 66.1629C23.3022 64.1692 19.8308 60.6978 17.8371 56.3732C16 52.3881 16 47.2588 16 37V37Z" fill="#F0F0F0" fill-opacity="0.3"/>
<g clip-path="url(#paint0_angular_442_287_clip_path)" data-figma-skip-parse="true" mask="url(#path-1-inside-1_442_287)"><g transform="matrix(0.195398 0.00756977 -0.0385219 0.0292203 197 38.8023)"><foreignObject x="-1330.17" y="-1330.17" width="2660.34" height="2660.34"><div xmlns="http://www.w3.org/1999/xhtml" style="background:conic-gradient(from 90deg,rgba(178, 178, 178, 0.5) 0deg,rgba(156, 156, 156, 0.5) 10.5206deg,rgba(255, 90, 90, 1) 32.1212deg,rgba(255, 255, 255, 0.5) 60.2813deg,rgba(255, 91, 91, 1) 107.788deg,rgba(255, 91, 91, 1) 187.591deg,rgba(249, 249, 249, 1) 207.58deg,rgba(255, 91, 91, 1) 287.308deg,rgba(249, 249, 249, 0.5) 327.047deg,rgba(178, 178, 178, 0.5) 360deg);height:100%;width:100%;opacity:1"></div></foreignObject></g></g><path d="M27.6268 66.1629L28.0455 65.2547L27.6268 66.1629ZM16 37M17.8371 56.3732L16.929 56.7919L17.8371 56.3732ZM378 37M376.163 56.3732L375.255 55.9545L376.163 56.3732ZM366.373 66.1629L365.955 65.2547L366.373 66.1629ZM366.373 7.83714L365.955 8.74528L366.373 7.83714ZM378 37M376.163 17.6268L377.071 17.2081L376.163 17.6268ZM16 37M47 6V7H347V6V5H47V6ZM378 37M347 68V67H47V68V69H347V68ZM16 37M47 68V67C41.8555 67 38.0523 66.9993 35.0355 66.7732C32.029 66.5477 29.8843 66.1024 28.0455 65.2547L27.6268 66.1629L27.2081 67.071C29.3544 68.0604 31.7668 68.5337 34.886 68.7676C37.9949 69.0007 41.8857 69 47 69V68ZM16 37H15C15 42.1143 14.9993 46.0051 15.2324 49.114C15.4663 52.2332 15.9396 54.6456 16.929 56.7919L17.8371 56.3732L18.7453 55.9545C17.8976 54.1157 17.4523 51.971 17.2268 48.9645C17.0007 45.9477 17 42.1445 17 37H16ZM27.6268 66.1629L28.0455 65.2547C23.9371 63.3607 20.6393 60.0629 18.7453 55.9545L17.8371 56.3732L16.929 56.7919C19.0224 61.3327 22.6673 64.9776 27.2081 67.071L27.6268 66.1629ZM378 37H377C377 42.1445 376.999 45.9477 376.773 48.9645C376.548 51.971 376.102 54.1157 375.255 55.9545L376.163 56.3732L377.071 56.7919C378.06 54.6456 378.534 52.2332 378.768 49.114C379.001 46.0051 379 42.1143 379 37H378ZM347 68V69C352.114 69 356.005 69.0007 359.114 68.7676C362.233 68.5337 364.646 68.0604 366.792 67.071L366.373 66.1629L365.955 65.2547C364.116 66.1024 361.971 66.5477 358.964 66.7732C355.948 66.9993 352.144 67 347 67V68ZM376.163 56.3732L375.255 55.9545C373.361 60.0629 370.063 63.3607 365.955 65.2547L366.373 66.1629L366.792 67.071C371.333 64.9776 374.978 61.3327 377.071 56.7919L376.163 56.3732ZM347 6V7C352.144 7 355.948 7.00065 358.964 7.22684C361.971 7.45226 364.116 7.89756 365.955 8.74528L366.373 7.83714L366.792 6.92899C364.646 5.93957 362.233 5.46631 359.114 5.23244C356.005 4.99935 352.114 5 347 5V6ZM378 37H379C379 31.8857 379.001 27.9949 378.768 24.886C378.534 21.7668 378.06 19.3544 377.071 17.2081L376.163 17.6268L375.255 18.0455C376.102 19.8843 376.548 22.029 376.773 25.0355C376.999 28.0523 377 31.8555 377 37H378ZM366.373 7.83714L365.955 8.74528C370.063 10.6393 373.361 13.9371 375.255 18.0455L376.163 17.6268L377.071 17.2081C374.978 12.6673 371.333 9.02236 366.792 6.92899L366.373 7.83714ZM47 6V5C41.8857 5 37.9949 4.99935 34.886 5.23244C31.7668 5.46631 29.3544 5.93957 27.2081 6.92899L27.6268 7.83714L28.0455 8.74528C29.8843 7.89756 32.029 7.45226 35.0355 7.22684C38.0523 7.00065 41.8555 7 47 7V6ZM16 37H17C17 31.8555 17.0007 28.0523 17.2268 25.0355C17.4523 22.029 17.8976 19.8843 18.7453 18.0455L17.8371 17.6268L16.929 17.2081C15.9396 19.3544 15.4663 21.7668 15.2324 24.886C14.9993 27.9949 15 31.8857 15 37H16ZM27.6268 7.83714L27.2081 6.92899C22.6673 9.02236 19.0224 12.6673 16.929 17.2081L17.8371 17.6268L18.7453 18.0455C20.6393 13.9371 23.9371 10.6393 28.0455 8.74528L27.6268 7.83714Z" data-figma-gradient-fill="{&#34;type&#34;:&#34;GRADIENT_ANGULAR&#34;,&#34;stops&#34;:[{&#34;color&#34;:{&#34;r&#34;:0.61176472902297974,&#34;g&#34;:0.61176472902297974,&#34;b&#34;:0.61176472902297974,&#34;a&#34;:0.50},&#34;position&#34;:0.029223963618278503},{&#34;color&#34;:{&#34;r&#34;:1.0,&#34;g&#34;:0.35576921701431274,&#34;b&#34;:0.35576921701431274,&#34;a&#34;:1.0},&#34;position&#34;:0.089225620031356812},{&#34;color&#34;:{&#34;r&#34;:1.0,&#34;g&#34;:1.0,&#34;b&#34;:1.0,&#34;a&#34;:0.50},&#34;position&#34;:0.16744795441627502},{&#34;color&#34;:{&#34;r&#34;:1.0,&#34;g&#34;:0.35686275362968445,&#34;b&#34;:0.35686275362968445,&#34;a&#34;:1.0},&#34;position&#34;:0.29941025376319885},{&#34;color&#34;:{&#34;r&#34;:1.0,&#34;g&#34;:0.35686275362968445,&#34;b&#34;:0.35686275362968445,&#34;a&#34;:1.0},&#34;position&#34;:0.52108556032180786},{&#34;color&#34;:{&#34;r&#34;:0.97664386034011841,&#34;g&#34;:0.97664386034011841,&#34;b&#34;:0.97664386034011841,&#34;a&#34;:1.0},&#34;position&#34;:0.57661086320877075},{&#34;color&#34;:{&#34;r&#34;:1.0,&#34;g&#34;:0.35686275362968445,&#34;b&#34;:0.35686275362968445,&#34;a&#34;:1.0},&#34;position&#34;:0.79807692766189575},{&#34;color&#34;:{&#34;r&#34;:0.97647058963775635,&#34;g&#34;:0.97647058963775635,&#34;b&#34;:0.97647058963775635,&#34;a&#34;:0.50},&#34;position&#34;:0.90846514701843262}],&#34;stopsVar&#34;:[{&#34;color&#34;:{&#34;r&#34;:0.61176472902297974,&#34;g&#34;:0.61176472902297974,&#34;b&#34;:0.61176472902297974,&#34;a&#34;:0.50},&#34;position&#34;:0.029223963618278503},{&#34;color&#34;:{&#34;r&#34;:1.0,&#34;g&#34;:0.35576921701431274,&#34;b&#34;:0.35576921701431274,&#34;a&#34;:1.0},&#34;position&#34;:0.089225620031356812},{&#34;color&#34;:{&#34;r&#34;:1.0,&#34;g&#34;:1.0,&#34;b&#34;:1.0,&#34;a&#34;:0.50},&#34;position&#34;:0.16744795441627502},{&#34;color&#34;:{&#34;r&#34;:1.0,&#34;g&#34;:0.35686275362968445,&#34;b&#34;:0.35686275362968445,&#34;a&#34;:1.0},&#34;position&#34;:0.29941025376319885},{&#34;color&#34;:{&#34;r&#34;:1.0,&#34;g&#34;:0.35686275362968445,&#34;b&#34;:0.35686275362968445,&#34;a&#34;:1.0},&#34;position&#34;:0.52108556032180786},{&#34;color&#34;:{&#34;r&#34;:0.97664386034011841,&#34;g&#34;:0.97664386034011841,&#34;b&#34;:0.97664386034011841,&#34;a&#34;:1.0},&#34;position&#34;:0.57661086320877075},{&#34;color&#34;:{&#34;r&#34;:1.0,&#34;g&#34;:0.35686275362968445,&#34;b&#34;:0.35686275362968445,&#34;a&#34;:1.0},&#34;position&#34;:0.79807692766189575},{&#34;color&#34;:{&#34;r&#34;:0.97647058963775635,&#34;g&#34;:0.97647058963775635,&#34;b&#34;:0.97647058963775635,&#34;a&#34;:0.50},&#34;position&#34;:0.90846514701843262}],&#34;transform&#34;:{&#34;m00&#34;:390.79544067382812,&#34;m01&#34;:-77.043792724609375,&#34;m02&#34;:40.124176025390625,&#34;m10&#34;:15.139533042907715,&#34;m11&#34;:58.440670013427734,&#34;m12&#34;:2.0122241973876953},&#34;opacity&#34;:1.0,&#34;blendMode&#34;:&#34;NORMAL&#34;,&#34;visible&#34;:true}" mask="url(#path-1-inside-1_442_287)"/>
</g>
<defs>
<filter id="filter0_ddddii_442_287" x="-40" y="-14" width="438" height="177" filterUnits="userSpaceOnUse" color-interpolation-filters="sRGB">
<feFlood flood-opacity="0" result="BackgroundImageFix"/>
<feColorMatrix in="SourceAlpha" type="matrix" values="0 0 0 0 0 0 0 0 0 0 0 0 0 0 0 0 0 0 127 0" result="hardAlpha"/>
<feOffset dx="-2" dy="4"/>
<feGaussianBlur stdDeviation="5"/>
<feColorMatrix type="matrix" values="0 0 0 0 0.568627 0 0 0 0 0.568627 0 0 0 0 0.568627 0 0 0 0.05 0"/>
<feBlend mode="normal" in2="BackgroundImageFix" result="effect1_dropShadow_442_287"/>
<feColorMatrix in="SourceAlpha" type="matrix" values="0 0 0 0 0 0 0 0 0 0 0 0 0 0 0 0 0 0 127 0" result="hardAlpha"/>
<feOffset dx="-7" dy="17"/>
<feGaussianBlur stdDeviation="9"/>
<feColorMatrix type="matrix" values="0 0 0 0 0.568627 0 0 0 0 0.568627 0 0 0 0 0.568627 0 0 0 0.04 0"/>
<feBlend mode="normal" in2="effect1_dropShadow_442_287" result="effect2_dropShadow_442_287"/>
<feColorMatrix in="SourceAlpha" type="matrix" values="0 0 0 0 0 0 0 0 0 0 0 0 0 0 0 0 0 0 127 0" result="hardAlpha"/>
<feOffset dx="-15" dy="37"/>
<feGaussianBlur stdDeviation="12"/>
<feColorMatrix type="matrix" values="0 0 0 0 0.568627 0 0 0 0 0.568627 0 0 0 0 0.568627 0 0 0 0.03 0"/>
<feBlend mode="normal" in2="effect2_dropShadow_442_287" result="effect3_dropShadow_442_287"/>
<feColorMatrix in="SourceAlpha" type="matrix" values="0 0 0 0 0 0 0 0 0 0 0 0 0 0 0 0 0 0 127 0" result="hardAlpha"/>
<feOffset dx="-27" dy="66"/>
<feGaussianBlur stdDeviation="14.5"/>
<feColorMatrix type="matrix" values="0 0 0 0 0.568627 0 0 0 0 0.568627 0 0 0 0 0.568627 0 0 0 0.01 0"/>
<feBlend mode="normal" in2="effect3_dropShadow_442_287" result="effect4_dropShadow_442_287"/>
<feBlend mode="normal" in="SourceGraphic" in2="effect4_dropShadow_442_287" result="shape"/>
<feColorMatrix in="SourceAlpha" type="matrix" values="0 0 0 0 0 0 0 0 0 0 0 0 0 0 0 0 0 0 127 0" result="hardAlpha"/>
<feOffset dy="4"/>
<feGaussianBlur stdDeviation="2"/>
<feComposite in2="hardAlpha" operator="arithmetic" k2="-1" k3="1"/>
<feColorMatrix type="matrix" values="0 0 0 0 1 0 0 0 0 1 0 0 0 0 1 0 0 0 0.25 0"/>
<feBlend mode="normal" in2="shape" result="effect5_innerShadow_442_287"/>
<feColorMatrix in="SourceAlpha" type="matrix" values="0 0 0 0 0 0 0 0 0 0 0 0 0 0 0 0 0 0 127 0" result="hardAlpha"/>
<feOffset dy="-5"/>
<feGaussianBlur stdDeviation="2"/>
<feComposite in2="hardAlpha" operator="arithmetic" k2="-1" k3="1"/>
<feColorMatrix type="matrix" values="0 0 0 0 1 0 0 0 0 1 0 0 0 0 1 0 0 0 0.25 0"/>
<feBlend mode="normal" in2="effect5_innerShadow_442_287" result="effect6_innerShadow_442_287"/>
</filter>
<clipPath id="bgblur_0_442_287_clip_path" transform="translate(40 14)"><path d="M16 37C16 26.7412 16 21.6119 17.8371 17.6268C19.8308 13.3022 23.3022 9.83082 27.6268 7.83714C31.6119 6 36.7412 6 47 6H347C357.259 6 362.388 6 366.373 7.83714C370.698 9.83082 374.169 13.3022 376.163 17.6268C378 21.6119 378 26.7412 378 37V37C378 47.2588 378 52.3881 376.163 56.3732C374.169 60.6978 370.698 64.1692 366.373 66.1629C362.388 68 357.259 68 347 68H47C36.7412 68 31.6119 68 27.6268 66.1629C23.3022 64.1692 19.8308 60.6978 17.8371 56.3732C16 52.3881 16 47.2588 16 37V37Z"/>
</clipPath><clipPath id="paint0_angular_442_287_clip_path"><path d="M27.6268 66.1629L28.0455 65.2547L27.6268 66.1629ZM16 37M17.8371 56.3732L16.929 56.7919L17.8371 56.3732ZM378 37M376.163 56.3732L375.255 55.9545L376.163 56.3732ZM366.373 66.1629L365.955 65.2547L366.373 66.1629ZM366.373 7.83714L365.955 8.74528L366.373 7.83714ZM378 37M376.163 17.6268L377.071 17.2081L376.163 17.6268ZM16 37M47 6V7H347V6V5H47V6ZM378 37M347 68V67H47V68V69H347V68ZM16 37M47 68V67C41.8555 67 38.0523 66.9993 35.0355 66.7732C32.029 66.5477 29.8843 66.1024 28.0455 65.2547L27.6268 66.1629L27.2081 67.071C29.3544 68.0604 31.7668 68.5337 34.886 68.7676C37.9949 69.0007 41.8857 69 47 69V68ZM16 37H15C15 42.1143 14.9993 46.0051 15.2324 49.114C15.4663 52.2332 15.9396 54.6456 16.929 56.7919L17.8371 56.3732L18.7453 55.9545C17.8976 54.1157 17.4523 51.971 17.2268 48.9645C17.0007 45.9477 17 42.1445 17 37H16ZM27.6268 66.1629L28.0455 65.2547C23.9371 63.3607 20.6393 60.0629 18.7453 55.9545L17.8371 56.3732L16.929 56.7919C19.0224 61.3327 22.6673 64.9776 27.2081 67.071L27.6268 66.1629ZM378 37H377C377 42.1445 376.999 45.9477 376.773 48.9645C376.548 51.971 376.102 54.1157 375.255 55.9545L376.163 56.3732L377.071 56.7919C378.06 54.6456 378.534 52.2332 378.768 49.114C379.001 46.0051 379 42.1143 379 37H378ZM347 68V69C352.114 69 356.005 69.0007 359.114 68.7676C362.233 68.5337 364.646 68.0604 366.792 67.071L366.373 66.1629L365.955 65.2547C364.116 66.1024 361.971 66.5477 358.964 66.7732C355.948 66.9993 352.144 67 347 67V68ZM376.163 56.3732L375.255 55.9545C373.361 60.0629 370.063 63.3607 365.955 65.2547L366.373 66.1629L366.792 67.071C371.333 64.9776 374.978 61.3327 377.071 56.7919L376.163 56.3732ZM347 6V7C352.144 7 355.948 7.00065 358.964 7.22684C361.971 7.45226 364.116 7.89756 365.955 8.74528L366.373 7.83714L366.792 6.92899C364.646 5.93957 362.233 5.46631 359.114 5.23244C356.005 4.99935 352.114 5 347 5V6ZM378 37H379C379 31.8857 379.001 27.9949 378.768 24.886C378.534 21.7668 378.06 19.3544 377.071 17.2081L376.163 17.6268L375.255 18.0455C376.102 19.8843 376.548 22.029 376.773 25.0355C376.999 28.0523 377 31.8555 377 37H378ZM366.373 7.83714L365.955 8.74528C370.063 10.6393 373.361 13.9371 375.255 18.0455L376.163 17.6268L377.071 17.2081C374.978 12.6673 371.333 9.02236 366.792 6.92899L366.373 7.83714ZM47 6V5C41.8857 5 37.9949 4.99935 34.886 5.23244C31.7668 5.46631 29.3544 5.93957 27.2081 6.92899L27.6268 7.83714L28.0455 8.74528C29.8843 7.89756 32.029 7.45226 35.0355 7.22684C38.0523 7.00065 41.8555 7 47 7V6ZM16 37H17C17 31.8555 17.0007 28.0523 17.2268 25.0355C17.4523 22.029 17.8976 19.8843 18.7453 18.0455L17.8371 17.6268L16.929 17.2081C15.9396 19.3544 15.4663 21.7668 15.2324 24.886C14.9993 27.9949 15 31.8857 15 37H16ZM27.6268 7.83714L27.2081 6.92899C22.6673 9.02236 19.0224 12.6673 16.929 17.2081L17.8371 17.6268L18.7453 18.0455C20.6393 13.9371 23.9371 10.6393 28.0455 8.74528L27.6268 7.83714Z" mask="url(#path-1-inside-1_442_287)"/></clipPath></defs>
</svg>
